<?xml version="1.0" encoding="UTF-8" standalone="no"?>
<!-- Created with Inkscape (http://www.inkscape.org/) -->

<svg
   xmlns:dc="http://purl.org/dc/elements/1.1/"
   xmlns:cc="http://creativecommons.org/ns#"
   xmlns:rdf="http://www.w3.org/1999/02/22-rdf-syntax-ns#"
   xmlns:svg="http://www.w3.org/2000/svg"
   xmlns="http://www.w3.org/2000/svg"
   xmlns:sodipodi="http://sodipodi.sourceforge.net/DTD/sodipodi-0.dtd"
   xmlns:inkscape="http://www.inkscape.org/namespaces/inkscape"
   width="253.3363mm"
   height="139.01425mm"
   viewBox="0 0 897.64832 492.57018"
   id="svg2"
   version="1.1"
   inkscape:version="0.91 r13725"
   sodipodi:docname="logo-PCB.svg">
  <defs
     id="defs4" />
  <sodipodi:namedview
     id="base"
     pagecolor="#ffffff"
     bordercolor="#666666"
     borderopacity="1.0"
     inkscape:pageopacity="0.0"
     inkscape:pageshadow="2"
     inkscape:zoom="0.7"
     inkscape:cx="493.00954"
     inkscape:cy="184.03034"
     inkscape:document-units="px"
     inkscape:current-layer="layer1"
     showgrid="false"
     inkscape:snap-text-baseline="false"
     fit-margin-top="0"
     fit-margin-left="0"
     fit-margin-right="0"
     fit-margin-bottom="0"
     inkscape:window-width="1463"
     inkscape:window-height="1093"
     inkscape:window-x="1160"
     inkscape:window-y="321"
     inkscape:window-maximized="0" />
  <metadata
     id="metadata7">
    <rdf:RDF>
      <cc:Work
         rdf:about="">
        <dc:format>image/svg+xml</dc:format>
        <dc:type
           rdf:resource="http://purl.org/dc/dcmitype/StillImage" />
        <dc:title />
      </cc:Work>
    </rdf:RDF>
  </metadata>
  <g
     inkscape:label="SilkS"
     inkscape:groupmode="layer"
     id="layer1"
     transform="translate(0,-559.792)">
    <g
       style="font-style:normal;font-variant:normal;font-weight:normal;font-stretch:normal;font-size:282.6625061px;writing-mode:lr-tb;text-anchor:start;fill:#000000;fill-opacity:1;stroke:none;stroke-width:1px;stroke-linecap:butt;stroke-linejoin:miter;stroke-opacity:1"
       id="text4465" />
    <g
       transform="scale(-1,1)"
       style="font-style:normal;font-variant:normal;font-weight:normal;font-stretch:normal;font-size:282.6625061px;writing-mode:lr-tb;text-anchor:start;fill:#000000;fill-opacity:1;stroke:none;stroke-width:1px;stroke-linecap:butt;stroke-linejoin:miter;stroke-opacity:1"
       id="text4469" />
    <g
       transform="matrix(0,-1,-1,0,0,0)"
       style="font-style:normal;font-variant:normal;font-weight:normal;font-stretch:normal;font-size:282.6625061px;writing-mode:lr-tb;text-anchor:start;fill:#000000;fill-opacity:1;stroke:none;stroke-width:1px;stroke-linecap:butt;stroke-linejoin:miter;stroke-opacity:1"
       id="text4473" />
    <g
       transform="matrix(0,1,-1,0,0,0)"
       style="font-style:normal;font-variant:normal;font-weight:normal;font-stretch:normal;font-size:282.6625061px;writing-mode:lr-tb;text-anchor:start;fill:#000000;fill-opacity:1;stroke:none;stroke-width:1px;stroke-linecap:butt;stroke-linejoin:miter;stroke-opacity:1"
       id="text4477" />
    <path
       style="color:#000000;font-style:normal;font-variant:normal;font-weight:normal;font-stretch:normal;font-size:medium;line-height:normal;font-family:sans-serif;text-indent:0;text-align:start;text-decoration:none;text-decoration-line:none;text-decoration-style:solid;text-decoration-color:#000000;letter-spacing:normal;word-spacing:normal;text-transform:none;direction:ltr;block-progression:tb;writing-mode:lr-tb;baseline-shift:baseline;text-anchor:start;white-space:normal;clip-rule:nonzero;display:inline;overflow:visible;visibility:visible;opacity:1;isolation:auto;mix-blend-mode:normal;color-interpolation:sRGB;color-interpolation-filters:linearRGB;solid-color:#000000;solid-opacity:1;fill:#000000;fill-opacity:1;fill-rule:evenodd;stroke:none;stroke-width:40;stroke-linecap:butt;stroke-linejoin:round;stroke-miterlimit:4;stroke-dasharray:none;stroke-dashoffset:0;stroke-opacity:1;marker:none;paint-order:normal;color-rendering:auto;image-rendering:auto;shape-rendering:auto;text-rendering:auto;enable-background:accumulate"
       d="m 111.38086,636.07617 c -19.09707,0 -35.095704,15.99864 -35.095704,35.09571 l 0,269.80859 c 0,19.09707 15.998618,35.0957 35.095704,35.0957 l 269.80859,0 c 19.09709,0 35.09571,-15.99863 35.09571,-35.0957 l 0,-269.80859 c 0,-19.09707 -15.99864,-35.09571 -35.09571,-35.09571 l -269.80859,0 z m 4.9043,40 260,0 0,260 -260,0 0,-260 z"
       id="rect4354"
       inkscape:connector-curvature="0" />
    <g
       style="font-style:normal;font-variant:normal;font-weight:normal;font-stretch:normal;font-size:282.6625061px;writing-mode:lr-tb;text-anchor:start;fill:#000000;fill-opacity:1;stroke:none;stroke-width:1px;stroke-linecap:butt;stroke-linejoin:miter;stroke-opacity:1"
       id="text4356">
      <path
         d="m 570.2854,883.24396 c 0,12.15449 9.61052,21.76501 21.76501,21.76501 l 102.32383,0 c 11.02384,0 19.78637,-8.76254 19.78637,-19.78637 0,-11.02384 -8.76253,-19.78638 -19.78637,-19.78638 l -80.55882,0 0,-138.22196 c 0,-12.15449 -9.61052,-21.76502 -21.76501,-21.76502 -12.15449,0 -21.76501,9.61053 -21.76501,21.76502 l 0,156.0297 z"
         style=""
         id="path4146" />
      <path
         d="m 745.29324,884.93993 c 0,12.15449 9.61053,21.76502 21.76501,21.76502 12.15449,0 21.76502,-9.61053 21.76502,-21.76502 l 0,-56.5325 76.31887,0 c 11.02384,0 19.78638,-8.76253 19.78638,-19.78637 0,-11.02384 -8.76254,-19.78638 -19.78638,-19.78638 l -76.31887,0 0,-42.11671 89.03869,0 c 11.02383,0 19.78637,-8.76254 19.78637,-19.78638 0,-11.02383 -8.76254,-19.78637 -19.78637,-19.78637 l -110.80371,0 c -12.15448,0 -21.76501,9.61052 -21.76501,21.76501 l 0,156.0297 z"
         style=""
         id="path4148" />
    </g>
    <path
       style="color:#000000;font-style:normal;font-variant:normal;font-weight:normal;font-stretch:normal;font-size:medium;line-height:normal;font-family:sans-serif;text-indent:0;text-align:start;text-decoration:none;text-decoration-line:none;text-decoration-style:solid;text-decoration-color:#000000;letter-spacing:normal;word-spacing:normal;text-transform:none;direction:ltr;block-progression:tb;writing-mode:lr-tb;baseline-shift:baseline;text-anchor:start;white-space:normal;clip-rule:nonzero;display:inline;overflow:visible;visibility:visible;opacity:1;isolation:auto;mix-blend-mode:normal;color-interpolation:sRGB;color-interpolation-filters:linearRGB;solid-color:#000000;solid-opacity:1;fill:#000000;fill-opacity:1;fill-rule:evenodd;stroke:none;stroke-width:40;stroke-linecap:butt;stroke-linejoin:round;stroke-miterlimit:4;stroke-dasharray:none;stroke-dashoffset:0;stroke-opacity:1;marker:none;paint-order:normal;color-rendering:auto;image-rendering:auto;shape-rendering:auto;text-rendering:auto;enable-background:accumulate"
       d="m 436.2851,707.14448 0,38.72461 75.3691,0 c 10.7412,0 19.5039,-8.47952 19.5039,-19.2207 0,-10.74117 -8.7627,-19.50391 -19.5039,-19.50391 z m 0,78.86328 0,38.72461 62.6484,0 c 10.7412,0 19.5039,-8.47952 19.5039,-19.2207 0,-10.74117 -8.7627,-19.50391 -19.5039,-19.50391 z m 0,80.27735 0,38.72461 76.7832,0 c 10.7411,0 19.5019,-8.48148 19.5019,-19.22266 0,-10.74117 -8.7608,-19.50195 -19.5019,-19.50195 z"
       id="rect4463"
       inkscape:connector-curvature="0"
       sodipodi:nodetypes="ccssscccssscccsssc" />
    <path
       sodipodi:nodetypes="ccssscccssscccsssc"
       inkscape:connector-curvature="0"
       id="path4509"
       d="m 56.2851,707.14448 0,38.72461 -35.3691,0 c -10.7412,0 -19.5039,-8.47952 -19.5039,-19.2207 0,-10.74117 8.7627,-19.50391 19.5039,-19.50391 z m 0,78.86328 0,38.72461 -22.6484,0 c -10.7412,0 -19.5039,-8.47952 -19.5039,-19.2207 0,-10.74117 8.7627,-19.50391 19.5039,-19.50391 z m 0,80.27735 0,38.72461 -36.7832,0 C 8.7608,905.00972 0,896.52824 0,885.78706 0,875.04589 8.7608,866.28511 19.5019,866.28511 Z"
       style="color:#000000;font-style:normal;font-variant:normal;font-weight:normal;font-stretch:normal;font-size:medium;line-height:normal;font-family:sans-serif;text-indent:0;text-align:start;text-decoration:none;text-decoration-line:none;text-decoration-style:solid;text-decoration-color:#000000;letter-spacing:normal;word-spacing:normal;text-transform:none;direction:ltr;block-progression:tb;writing-mode:lr-tb;baseline-shift:baseline;text-anchor:start;white-space:normal;clip-rule:nonzero;display:inline;overflow:visible;visibility:visible;opacity:1;isolation:auto;mix-blend-mode:normal;color-interpolation:sRGB;color-interpolation-filters:linearRGB;solid-color:#000000;solid-opacity:1;fill:#000000;fill-opacity:1;fill-rule:evenodd;stroke:none;stroke-width:40;stroke-linecap:butt;stroke-linejoin:round;stroke-miterlimit:4;stroke-dasharray:none;stroke-dashoffset:0;stroke-opacity:1;marker:none;paint-order:normal;color-rendering:auto;image-rendering:auto;shape-rendering:auto;text-rendering:auto;enable-background:accumulate" />
    <path
       sodipodi:nodetypes="ccssscccssscccsssc"
       inkscape:connector-curvature="0"
       id="path4511"
       d="m 345.2177,996.0771 -38.7246,0 0,35.3691 c 0,10.7412 8.4795,19.5039 19.2207,19.5039 10.7412,0 19.5039,-8.7627 19.5039,-19.5039 z m -78.8633,0 -38.7246,0 0,22.6484 c 0,10.7412 8.4796,19.5039 19.2207,19.5039 10.7412,0 19.5039,-8.7627 19.5039,-19.5039 z m -80.2773,0 -38.7246,0 0,36.7832 c 0,10.7411 8.4815,19.5019 19.2226,19.5019 10.7412,0 19.502,-8.7608 19.502,-19.5019 z"
       style="color:#000000;font-style:normal;font-variant:normal;font-weight:normal;font-stretch:normal;font-size:medium;line-height:normal;font-family:sans-serif;text-indent:0;text-align:start;text-decoration:none;text-decoration-line:none;text-decoration-style:solid;text-decoration-color:#000000;letter-spacing:normal;word-spacing:normal;text-transform:none;direction:ltr;block-progression:tb;writing-mode:lr-tb;baseline-shift:baseline;text-anchor:start;white-space:normal;clip-rule:nonzero;display:inline;overflow:visible;visibility:visible;opacity:1;isolation:auto;mix-blend-mode:normal;color-interpolation:sRGB;color-interpolation-filters:linearRGB;solid-color:#000000;solid-opacity:1;fill:#000000;fill-opacity:1;fill-rule:evenodd;stroke:none;stroke-width:40;stroke-linecap:butt;stroke-linejoin:round;stroke-miterlimit:4;stroke-dasharray:none;stroke-dashoffset:0;stroke-opacity:1;marker:none;paint-order:normal;color-rendering:auto;image-rendering:auto;shape-rendering:auto;text-rendering:auto;enable-background:accumulate" />
    <path
       style="color:#000000;font-style:normal;font-variant:normal;font-weight:normal;font-stretch:normal;font-size:medium;line-height:normal;font-family:sans-serif;text-indent:0;text-align:start;text-decoration:none;text-decoration-line:none;text-decoration-style:solid;text-decoration-color:#000000;letter-spacing:normal;word-spacing:normal;text-transform:none;direction:ltr;block-progression:tb;writing-mode:lr-tb;baseline-shift:baseline;text-anchor:start;white-space:normal;clip-rule:nonzero;display:inline;overflow:visible;visibility:visible;opacity:1;isolation:auto;mix-blend-mode:normal;color-interpolation:sRGB;color-interpolation-filters:linearRGB;solid-color:#000000;solid-opacity:1;fill:#000000;fill-opacity:1;fill-rule:evenodd;stroke:none;stroke-width:40;stroke-linecap:butt;stroke-linejoin:round;stroke-miterlimit:4;stroke-dasharray:none;stroke-dashoffset:0;stroke-opacity:1;marker:none;paint-order:normal;color-rendering:auto;image-rendering:auto;shape-rendering:auto;text-rendering:auto;enable-background:accumulate"
       d="m 345.2177,616.0771 -38.7246,0 0,-35.3691 c 0,-10.7412 8.4795,-19.5039 19.2207,-19.5039 10.7412,0 19.5039,8.7627 19.5039,19.5039 z m -78.8633,0 -38.7246,0 0,-22.6484 c 0,-10.7412 8.4796,-19.5039 19.2207,-19.5039 10.7412,0 19.5039,8.7627 19.5039,19.5039 z m -80.2773,0 -38.7246,0 0,-36.7832 c 0,-10.7411 8.4815,-19.5019 19.2226,-19.5019 10.7412,0 19.502,8.7608 19.502,19.5019 z"
       id="path4513"
       inkscape:connector-curvature="0"
       sodipodi:nodetypes="ccssscccssscccsssc" />
  </g>
  <g
     inkscape:groupmode="layer"
     id="layer2"
     inkscape:label="Cu">
    <path
       style="fill:#ff0000"
       id="path4372"
       d="m 290.11494,164.96857 c -19.3982,0 -36.0926,11.44203 -43.8255,27.90479 -7.7388,-16.46238 -24.4353,-27.90479 -43.835,-27.90479 -26.7429,0 -48.4473,21.68292 -48.4473,48.39807 0,54.34159 54.8801,68.59067 92.282,122.31621 35.3529,-53.39249 92.274,-69.70867 92.274,-122.31621 0,-26.71515 -21.7048,-48.39807 -48.4482,-48.39807 z"
       inkscape:connector-curvature="0" />
  </g>
</svg>
